<svg xmlns="http://www.w3.org/2000/svg" width="46" height="46" viewBox="0 0 46 46" fill="none">
    <g clip-path="url(#clip0_172_14689)">
        <path d="M32.7085 12.438C30.5321 10.2616 28.8266 8.55601 27.3169 7.40416C25.7716 6.22518 24.3147 5.53252 22.6274 5.53252C21.0653 5.53252 19.6993 6.12637 18.2767 7.15261C16.8781 8.16152 15.3401 9.65206 13.4368 11.5485C13.0456 11.9384 13.0445 12.5715 13.4343 12.9628C13.8241 13.354 14.4573 13.3551 14.8485 12.9653C16.7752 11.0455 18.2002 9.67384 19.4468 8.77462C20.6693 7.89273 21.6306 7.53252 22.6274 7.53252C23.7015 7.53252 24.7364 7.95096 26.1037 8.9942C27.4941 10.0551 29.1062 11.6641 31.3484 13.9063C33.5906 16.1485 35.1996 17.7605 36.2605 19.1509C37.3037 20.5183 37.7221 21.5531 37.7221 22.6273C37.7221 23.7014 37.3037 24.7363 36.2605 26.1036C35.1996 27.494 33.5906 29.106 31.3484 31.3483C29.1062 33.5905 27.4941 35.1995 26.1037 36.2603C24.7364 37.3036 23.7015 37.722 22.6274 37.722C21.6306 37.722 20.6693 37.3618 19.4468 36.4799C18.2002 35.5807 16.7752 34.209 14.8485 32.2892C14.4573 31.8994 13.8241 31.9006 13.4343 32.2918C13.0444 32.683 13.0456 33.3162 13.4368 33.706C15.3401 35.6025 16.8781 37.093 18.2767 38.1019C19.6993 39.1282 21.0653 39.722 22.6274 39.722C24.3147 39.722 25.7716 39.0294 27.3169 37.8504C28.8266 36.6985 30.5321 34.993 32.7085 32.8166L32.8167 32.7084C34.9931 30.532 36.6987 28.8264 37.8505 27.3168C39.0295 25.7715 39.7221 24.3145 39.7221 22.6273C39.7221 20.94 39.0295 19.483 37.8505 17.9378C36.6987 16.4281 34.9931 14.7225 32.8167 12.5462L32.7085 12.438Z" fill="black"/>
        <path d="M15.7921 16.2634C15.4016 15.8729 14.7684 15.8729 14.3779 16.2634C13.9874 16.6539 13.9874 17.2871 14.3779 17.6776L18.3276 21.6274L5.65691 21.6274C5.10462 21.6274 4.65691 22.0751 4.65691 22.6274C4.65691 23.1796 5.10462 23.6274 5.65691 23.6274L18.3276 23.6274L14.3779 27.5771C13.9874 27.9676 13.9874 28.6008 14.3779 28.9913C14.7684 29.3818 15.4016 29.3818 15.7921 28.9913L21.449 23.3345C21.8395 22.9439 21.8395 22.3108 21.449 21.9203L15.7921 16.2634Z" fill="black"/>
    </g>
    <defs>
        <clipPath id="clip0_172_14689">
            <rect x="22.6274" width="32" height="32" rx="5" transform="rotate(45 22.6274 0)" fill="white"/>
        </clipPath>
    </defs>
</svg>