<svg xmlns="http://www.w3.org/2000/svg" width="32" height="32" viewBox="0 0 32 32" fill="none">
    <path d="M15.9234 1.66663C12.8456 1.66661 10.4335 1.6666 8.55153 1.91962C6.62522 2.17861 5.10518 2.71906 3.9121 3.91214C2.80755 5.01669 2.26155 6.40253 1.98127 8.13414C1.70572 9.83651 1.6722 11.978 1.66736 14.6648C1.66637 15.2171 2.11328 15.6656 2.66556 15.6666C3.21784 15.6676 3.66636 15.2207 3.66736 14.6684C3.67226 11.9485 3.70998 9.97098 3.95557 8.4537C4.19643 6.96566 4.62149 6.03118 5.32632 5.32635C6.08586 4.56681 7.11349 4.13096 8.81803 3.90179C10.5513 3.66875 12.829 3.66663 15.9999 3.66663C19.1709 3.66663 21.4485 3.66875 23.1818 3.90179C24.8864 4.13096 25.914 4.56681 26.6735 5.32635C27.4331 6.0859 27.8689 7.11352 28.0981 8.81806C28.3311 10.5514 28.3333 12.829 28.3333 16C28.3333 19.1709 28.3311 21.4486 28.0981 23.1819C27.8689 24.8864 27.4331 25.914 26.6735 26.6736C25.9687 27.3784 25.0342 27.8034 23.5462 28.0443C22.0289 28.2899 20.0513 28.3276 17.3315 28.3325C16.7792 28.3335 16.3323 28.782 16.3333 29.3343C16.3343 29.8866 16.7828 30.3335 17.3351 30.3325C20.0219 30.3277 22.1634 30.2942 23.8658 30.0186C25.5974 29.7383 26.9832 29.1923 28.0877 28.0878C29.2808 26.8947 29.8213 25.3747 30.0803 23.4484C30.3333 21.5664 30.3333 19.1543 30.3333 16.0765V15.9235C30.3333 12.8456 30.3333 10.4336 30.0803 8.55157C29.8213 6.62525 29.2808 5.10522 28.0877 3.91214C26.8947 2.71906 25.3746 2.17861 23.4483 1.91962C21.5663 1.6666 19.1543 1.66661 16.0764 1.66663H15.9234Z" fill="black"/>
    <path d="M6.66671 16.3333C6.11442 16.3333 5.66671 16.781 5.66671 17.3333C5.66671 17.8856 6.11442 18.3333 6.66671 18.3333H12.2525L3.29294 27.2929C2.90241 27.6834 2.90241 28.3165 3.29294 28.7071C3.68346 29.0976 4.31663 29.0976 4.70715 28.7071L13.6667 19.7475V25.3333C13.6667 25.8856 14.1144 26.3333 14.6667 26.3333C15.219 26.3333 15.6667 25.8856 15.6667 25.3333L15.6667 17.3333C15.6667 16.781 15.219 16.3333 14.6667 16.3333H6.66671Z" fill="black"/>
</svg>