<svg width="29" height="35" viewBox="0 0 29 35" fill="none" xmlns="http://www.w3.org/2000/svg">
<path d="M9.92473 22.1038L11.5023 21.7457C11.5352 21.7382 11.591 21.7258 11.6569 21.7046C12.0926 21.59 12.466 21.3138 12.6983 20.9342C12.9307 20.5547 13.0039 20.1015 12.9024 19.67L12.8961 19.6427C12.844 19.4359 12.7528 19.2406 12.6275 19.0668C12.4508 18.8468 12.2322 18.6626 11.9838 18.5246C11.6913 18.3611 11.3853 18.2221 11.0689 18.1092L9.33932 17.4887C8.36871 17.1342 7.3981 16.7897 6.41736 16.4527C5.78253 16.2313 5.24401 16.0361 4.77645 15.893C4.68745 15.8689 4.59914 15.8423 4.51162 15.8135C3.94649 15.6443 3.54861 15.5734 3.21283 15.5709C2.9884 15.5627 2.76485 15.6026 2.55773 15.6878C2.34134 15.7798 2.14706 15.9154 1.98753 16.0858C1.90838 16.174 1.83394 16.2662 1.76451 16.3619C1.62952 16.5655 1.51817 16.7832 1.43253 17.0111C1.11119 17.9426 0.951011 18.9204 0.958634 19.9038C0.964969 20.7918 0.989044 21.9322 1.48702 22.7058C1.6074 22.9047 1.76832 23.0764 1.95965 23.2094C2.31445 23.4495 2.67177 23.4818 3.04557 23.5079C3.6031 23.5465 4.14162 23.4134 4.68015 23.2903L9.92092 22.1026L9.92473 22.1038ZM27.5249 13.8846C27.0943 12.9974 26.5152 12.1873 25.8118 11.488C25.7209 11.3991 25.6235 11.3168 25.5204 11.2418C25.4251 11.1717 25.3261 11.1065 25.2239 11.0465C25.1186 10.9899 25.0103 10.9389 24.8995 10.8936C24.6807 10.8092 24.4462 10.771 24.2114 10.7816C23.9871 10.7941 23.7679 10.8563 23.569 10.9595C23.2687 11.1062 22.943 11.3425 22.5097 11.7368C22.4501 11.7952 22.3754 11.8611 22.307 11.9233C21.9509 12.2529 21.553 12.6596 21.0804 13.1321C20.3493 13.8572 19.6308 14.586 18.9149 15.321L17.6351 16.6243C17.4014 16.862 17.1886 17.1187 16.999 17.3916C16.8367 17.6226 16.7218 17.8824 16.6607 18.1565C16.6264 18.3671 16.6316 18.582 16.6759 18.7908L16.6822 18.8181C16.7834 19.2491 17.051 19.6248 17.4286 19.866C17.8063 20.1073 18.2646 20.1953 18.7071 20.1115C18.7603 20.1041 18.8132 20.0942 18.8655 20.0817L25.6851 18.5346C26.2236 18.4127 26.7685 18.3008 27.2512 18.0247C27.5756 17.8418 27.8835 17.659 28.0951 17.2909C28.2078 17.0881 28.276 16.8645 28.2953 16.6343C28.4005 15.7214 27.9152 14.6855 27.5249 13.8846ZM15.3163 16.6989C15.8105 16.0895 15.8105 15.1817 15.8535 14.438C16.0031 11.9569 16.1589 9.47581 16.2844 6.99348C16.3313 6.05328 16.4339 5.12552 16.3769 4.17786C16.33 3.39685 16.3249 2.49893 15.8219 1.85721C14.9349 0.725485 13.0418 0.818759 11.7506 0.995358C11.3523 1.04936 10.9569 1.12241 10.5659 1.21424C10.1731 1.30627 9.78281 1.40701 9.40268 1.52764C8.16344 1.92561 6.42116 2.65687 6.12719 4.05847C5.95993 4.85067 6.35527 5.66029 6.65938 6.38409C7.03064 7.25962 7.53622 8.04934 7.99745 8.87388C9.21768 11.0515 10.4594 13.2167 11.6974 15.3832C12.0687 16.0299 12.4704 16.8482 13.1863 17.184C13.2344 17.2039 13.2826 17.2213 13.332 17.2374C13.6526 17.3568 14.0036 17.3792 14.3368 17.3033L14.3964 17.2909C14.7055 17.2076 14.9843 17.0422 15.2035 16.8146C15.2441 16.7773 15.2795 16.74 15.3163 16.6989ZM14.7245 23.3413C14.5317 23.075 14.2579 22.8754 13.9425 22.7711C13.627 22.6668 13.2861 22.6631 12.9683 22.7605C12.8936 22.7846 12.8207 22.8142 12.7504 22.8488C12.6415 22.9033 12.5376 22.967 12.4399 23.0391C12.161 23.2548 11.9118 23.5052 11.6987 23.784C11.6442 23.8524 11.5935 23.9432 11.5276 24.0029L10.4303 25.4828C9.80942 26.3136 9.19487 27.1456 8.58792 27.99C8.19005 28.536 7.84793 28.9974 7.5755 29.4041C7.52481 29.4812 7.4716 29.5657 7.42345 29.6354C7.0978 30.1279 6.91407 30.4885 6.81903 30.8094C6.74804 31.0226 6.72555 31.2484 6.75314 31.471C6.78355 31.7023 6.86338 31.9249 6.98629 32.1252C7.05218 32.2247 7.12314 32.3217 7.19916 32.4149C7.36338 32.6005 7.54827 32.7673 7.75036 32.9124C8.50809 33.4298 9.33678 33.8016 10.2086 34.0889C10.9346 34.3252 11.6885 34.467 12.4513 34.5093C12.5819 34.5155 12.7124 34.513 12.8416 34.5018C12.9615 34.4908 13.0807 34.4742 13.1989 34.452C13.3172 34.425 13.434 34.3918 13.5487 34.3526C13.7716 34.2705 13.9745 34.1434 14.1442 33.9795C14.3051 33.8215 14.4293 33.6312 14.5066 33.4211C14.6333 33.1101 14.7169 32.7171 14.7727 32.1326C14.7765 32.0493 14.7892 31.9498 14.798 31.859C14.8411 31.374 14.8614 30.8019 14.8918 30.1328C14.9463 29.1019 14.9881 28.0758 15.0211 27.0473L15.092 25.2167C15.1085 24.7963 15.0945 24.3287 14.9754 23.9096C14.9231 23.7083 14.8384 23.5164 14.7245 23.3413ZM27.108 26.2054C26.88 25.9579 26.5556 25.7129 26.0437 25.4095C25.9702 25.3684 25.8827 25.3149 25.8029 25.2677C25.3772 25.0152 24.864 24.7516 24.2646 24.432C23.3435 23.9345 22.4223 23.452 21.4909 22.9719L19.8475 22.1163C19.7626 22.0914 19.6764 22.0317 19.5953 21.9932C19.2793 21.8347 18.9437 21.7173 18.5968 21.6437C18.4774 21.621 18.3561 21.6086 18.2345 21.6064C18.1557 21.606 18.077 21.6105 17.9988 21.6201C17.6698 21.6699 17.3652 21.8205 17.1286 22.0503C16.8919 22.2801 16.7353 22.5774 16.681 22.8998C16.6569 23.105 16.6645 23.3127 16.7051 23.5141C16.7849 23.9444 16.98 24.3685 17.1828 24.7404L18.0596 26.3559C18.5487 27.2662 19.0429 28.1716 19.5497 29.0745C19.8766 29.6627 20.1491 30.1664 20.4038 30.5843C20.4519 30.6626 20.5064 30.7472 20.5482 30.8206C20.8586 31.3218 21.107 31.6377 21.3592 31.8652C21.5271 32.0238 21.7287 32.144 21.9495 32.2171C22.1704 32.2902 22.4049 32.3144 22.6364 32.2881C22.757 32.2737 22.8767 32.2529 22.995 32.2259C23.2374 32.1622 23.4716 32.0717 23.6932 31.956C24.3601 31.5891 24.9749 31.1375 25.5216 30.6129C26.178 29.9786 26.7583 29.2872 27.2094 28.4962C27.2728 28.3843 27.326 28.2686 27.3716 28.148C27.4141 28.0375 27.4509 27.925 27.4818 27.811C27.5085 27.694 27.5287 27.5771 27.5427 27.459C27.5654 27.2268 27.5382 26.9925 27.4628 26.7713C27.3884 26.5589 27.2673 26.3653 27.108 26.2042V26.2054Z" fill="#171614"/>
</svg>
