<svg xmlns="http://www.w3.org/2000/svg" width="25" height="24" viewBox="0 0 25 24" fill="none">
    <path d="M11.2916 0.758394C11.6202 -0.2528 13.0507 -0.252802 13.3793 0.758393L15.5389 7.40492C15.6858 7.85714 16.1072 8.16332 16.5827 8.16332H23.5713C24.6345 8.16332 25.0766 9.52387 24.2164 10.1488L18.5626 14.2566C18.1779 14.5361 18.0169 15.0315 18.1639 15.4837L20.3234 22.1303C20.652 23.1414 19.4946 23.9823 18.6345 23.3574L12.9806 19.2496C12.5959 18.9701 12.075 18.9701 11.6903 19.2496L6.03645 23.3574C5.17628 23.9823 4.01892 23.1414 4.34748 22.1303L6.50707 15.4837C6.654 15.0315 6.49304 14.5361 6.10835 14.2566L0.454478 10.1488C-0.405695 9.52388 0.0363748 8.16332 1.09961 8.16332H8.08818C8.56368 8.16332 8.98509 7.85714 9.13203 7.40492L11.2916 0.758394Z" fill="#4E46B4"/>
</svg>