<svg width="30" height="52" viewBox="0 0 30 52" fill="none" xmlns="http://www.w3.org/2000/svg">
<path fill-rule="evenodd" clip-rule="evenodd" d="M14.4785 0.20812C11.4501 6.5014 0.661644 12.6054 13.9651 22.3055C17.6322 25.0263 23.7835 26.6824 20.6464 33.0963C20.3672 33.5861 20.8546 33.7209 21.2899 33.3543C25.7851 28.1493 33.0957 19.916 26.9397 13.2111C23.4381 9.4256 16.2695 6.94143 14.8405 3.34532C14.5636 2.64968 14.8689 1.64419 15.2521 0.84928C15.5597 0.111106 14.6441 -0.082922 14.4808 0.20578L14.4785 0.20812Z" fill="#171614"/>
<path fill-rule="evenodd" clip-rule="evenodd" d="M14.6413 0.20812C11.613 6.5014 0.824483 12.6054 14.1279 22.3055C17.7951 25.0263 23.9464 26.6824 20.8092 33.0963C20.53 33.5861 21.0174 33.7209 21.4527 33.3543C25.9479 28.1493 33.2586 19.916 27.1025 13.2111C23.601 9.4256 16.4323 6.94143 15.0033 3.34532C14.7265 2.64968 15.0317 1.64419 15.415 0.84928C15.7225 0.111106 14.8069 -0.082922 14.6437 0.20578L14.6413 0.20812Z" fill="#171614"/>
<path fill-rule="evenodd" clip-rule="evenodd" d="M8.25934 21.9901C6.70495 26.225 -1.15693 31.0988 9.33818 36.7202C11.7751 38.1704 14.898 39.985 14.5621 42.6396C14.432 42.9779 14.7372 43.0252 14.969 42.7508C18.4232 38.7761 21.0257 33.1216 16.7884 29.3125C14.5763 27.169 9.33582 26.0003 8.77273 22.3402C8.90049 21.8387 8.33268 21.7914 8.25697 21.9925L8.25934 21.9901Z" fill="#171614"/>
<path d="M1.13989 44.2963H27.6687V47.5542H1.13989V44.2963Z" fill="#171614"/>
<path fill-rule="evenodd" clip-rule="evenodd" d="M1.17112 44.2067L0 47.4977L2.00864 47.5261L1.17112 44.2067ZM27.6455 44.2067L28.8166 47.4977L26.808 47.5261L27.6455 44.2067ZM6.73334 46.6791L8.68994 52L20.1906 51.9599L21.991 46.6792H6.73571L6.73334 46.6791Z" fill="#171614"/>
</svg>
