<svg width="28" height="34" viewBox="0 0 28 34" fill="none" xmlns="http://www.w3.org/2000/svg">
<path d="M8.96635 21.2151L10.5439 20.8569C10.5769 20.8494 10.6326 20.837 10.6985 20.8159C11.1342 20.7012 11.5076 20.425 11.74 20.0455C11.9723 19.6659 12.0455 19.2127 11.9441 18.7812L11.9377 18.7539C11.8856 18.5472 11.7945 18.3519 11.6691 18.1781C11.4925 17.958 11.2738 17.7738 11.0254 17.6358C10.7329 17.4723 10.4269 17.3333 10.1106 17.2205L8.38094 16.5999C7.41034 16.2454 6.43973 15.901 5.45898 15.5639C4.82416 15.3426 4.28564 15.1473 3.81807 15.0043C3.72908 14.9801 3.64077 14.9536 3.55325 14.9247C2.98811 14.7556 2.59024 14.6847 2.25445 14.6822C2.03003 14.674 1.80648 14.7139 1.59936 14.7991C1.38296 14.891 1.18869 15.0266 1.02916 15.197C0.950011 15.2852 0.87557 15.3774 0.806141 15.4731C0.671146 15.6767 0.559795 15.8945 0.474161 16.1223C0.152819 17.0539 -0.00736274 18.0316 0.000259768 19.0151C0.00659533 19.903 0.0306702 21.0434 0.528646 21.817C0.649021 22.016 0.809946 22.1876 1.00128 22.3207C1.35607 22.5607 1.7134 22.593 2.08719 22.6192C2.64472 22.6577 3.18325 22.5246 3.72177 22.4015L8.96255 21.2138L8.96635 21.2151ZM26.5665 12.9958C26.1359 12.1086 25.5569 11.2986 24.8534 10.5993C24.7625 10.5103 24.6651 10.428 24.562 10.353C24.4667 10.2829 24.3677 10.2177 24.2655 10.1578C24.1602 10.1012 24.0519 10.0501 23.9411 10.0048C23.7223 9.92039 23.4879 9.88225 23.253 9.89288C23.0288 9.90532 22.8096 9.9675 22.6106 10.0707C22.3103 10.2175 21.9847 10.4538 21.5513 10.848C21.4918 10.9065 21.417 10.9724 21.3486 11.0346C20.9925 11.3641 20.5946 11.7708 20.122 12.2434C19.3909 12.9684 18.6724 13.6972 17.9565 14.4322L16.6767 15.7356C16.443 15.9733 16.2302 16.23 16.0406 16.5029C15.8783 16.7338 15.7634 16.9936 15.7023 17.2677C15.6681 17.4783 15.6732 17.6932 15.7175 17.902L15.7239 17.9293C15.825 18.3603 16.0926 18.736 16.4703 18.9773C16.8479 19.2185 17.3062 19.3065 17.7487 19.2227C17.802 19.2154 17.8548 19.2054 17.9071 19.1929L24.7267 17.6458C25.2652 17.5239 25.8101 17.412 26.2929 17.1359C26.6172 16.9531 26.9251 16.7703 27.1368 16.4021C27.2495 16.1994 27.3177 15.9757 27.337 15.7455C27.4421 14.8327 26.9568 13.7967 26.5665 12.9958ZM14.3579 15.8102C14.8521 15.2008 14.8521 14.2929 14.8952 13.5492C15.0447 11.0681 15.2006 8.58705 15.326 6.10472C15.3729 5.16452 15.4755 4.23676 15.4185 3.2891C15.3716 2.50808 15.3665 1.61017 14.8635 0.968444C13.9765 -0.163278 12.0834 -0.0700042 10.7923 0.106594C10.394 0.160595 9.99857 0.233642 9.60751 0.325476C9.21471 0.417506 8.82444 0.518242 8.4443 0.638877C7.20507 1.03684 5.46278 1.76811 5.16881 3.16971C5.00155 3.96191 5.39689 4.77153 5.701 5.49533C6.07227 6.37086 6.57784 7.16058 7.03907 7.98512C8.2593 10.1628 9.50107 12.3279 10.739 14.4944C11.1103 15.1411 11.512 15.9594 12.2279 16.2952C12.2761 16.3151 12.3242 16.3325 12.3736 16.3487C12.6942 16.4681 13.0452 16.4904 13.3784 16.4146L13.438 16.4021C13.7472 16.3188 14.0259 16.1534 14.2451 15.9258C14.2857 15.8885 14.3212 15.8512 14.3579 15.8102ZM13.7662 22.4525C13.5733 22.1862 13.2996 21.9866 12.9841 21.8823C12.6687 21.778 12.3277 21.7743 12.01 21.8717C11.9352 21.8959 11.8624 21.9254 11.792 21.96C11.6831 22.0145 11.5793 22.0782 11.4816 22.1503C11.2026 22.366 10.9535 22.6164 10.7403 22.8952C10.6858 22.9636 10.6351 23.0544 10.5692 23.1141L9.47193 24.5941C8.85104 25.4248 8.2365 26.2568 7.62955 27.1013C7.23167 27.6472 6.88955 28.1086 6.61712 28.5153C6.56644 28.5924 6.51322 28.677 6.46507 28.7466C6.13942 29.2391 5.95569 29.5998 5.86066 29.9206C5.78967 30.1338 5.76717 30.3596 5.79477 30.5823C5.82518 30.8136 5.90501 31.0362 6.02792 31.2364C6.09381 31.3359 6.16476 31.4329 6.24079 31.5262C6.405 31.7117 6.58989 31.8786 6.79199 32.0236C7.54972 32.541 8.37841 32.9128 9.25018 33.2001C9.97624 33.4364 10.7302 33.5782 11.493 33.6205C11.6235 33.6267 11.754 33.6242 11.8832 33.613C12.0031 33.602 12.1223 33.5854 12.2406 33.5633C12.3589 33.5363 12.4756 33.503 12.5903 33.4638C12.8133 33.3818 13.0162 33.2547 13.1858 33.0907C13.3468 32.9328 13.4709 32.7425 13.5482 32.5323C13.6749 32.2214 13.7586 31.8284 13.8143 31.2439C13.8181 31.1605 13.8308 31.0611 13.8397 30.9703C13.8827 30.4852 13.903 29.9132 13.9334 29.2441C13.9879 28.2131 14.0297 27.1871 14.0627 26.1586L14.1336 24.3279C14.1501 23.9076 14.1362 23.44 14.0171 23.0209C13.9647 22.8195 13.88 22.6277 13.7662 22.4525ZM26.1497 25.3166C25.9216 25.0691 25.5972 24.8241 25.0853 24.5207C25.0118 24.4797 24.9244 24.4262 24.8445 24.3789C24.4188 24.1265 23.9056 23.8628 23.3063 23.5432C22.3851 23.0457 21.4639 22.5632 20.5326 22.0831L18.8891 21.2275C18.8042 21.2026 18.7181 21.1429 18.637 21.1044C18.321 20.946 17.9853 20.8285 17.6385 20.7549C17.519 20.7323 17.3977 20.7198 17.2761 20.7176C17.1973 20.7172 17.1186 20.7218 17.0404 20.7313C16.7114 20.7812 16.4068 20.9317 16.1702 21.1615C15.9335 21.3914 15.7769 21.6886 15.7226 22.011C15.6985 22.2162 15.7061 22.4239 15.7467 22.6254C15.8265 23.0557 16.0216 23.4798 16.2244 23.8516L17.1012 25.4671C17.5903 26.3775 18.0845 27.2828 18.5913 28.1857C18.9183 28.774 19.1907 29.2777 19.4454 29.6955C19.4935 29.7739 19.548 29.8584 19.5898 29.9318C19.9003 30.433 20.1486 30.7489 20.4008 30.9765C20.5687 31.135 20.7703 31.2552 20.9912 31.3283C21.212 31.4014 21.4465 31.4257 21.678 31.3993C21.7986 31.3849 21.9183 31.3642 22.0366 31.3371C22.279 31.2735 22.5133 31.1829 22.7348 31.0673C23.4018 30.7003 24.0165 30.2487 24.5632 29.7241C25.2196 29.0899 25.8 28.3984 26.251 27.6074C26.3144 27.4955 26.3676 27.3799 26.4132 27.2592C26.4557 27.1488 26.4925 27.0363 26.5235 26.9222C26.5501 26.8053 26.5704 26.6884 26.5843 26.5702C26.607 26.338 26.5798 26.1037 26.5045 25.8825C26.4301 25.6702 26.3089 25.4766 26.1497 25.3154V25.3166Z" fill="#171614"/>
</svg>
